<?xml version="1.0" encoding="utf-8"?>
<!-- Generator: Adobe Illustrator 16.0.0, SVG Export Plug-In . SVG Version: 6.00 Build 0)  -->
<!DOCTYPE svg PUBLIC "-//W3C//DTD SVG 1.1//EN" "http://www.w3.org/Graphics/SVG/1.1/DTD/svg11.dtd">
<svg version="1.1" id="圖層_1" xmlns="http://www.w3.org/2000/svg" xmlns:xlink="http://www.w3.org/1999/xlink" x="0px" y="0px"
	 width="382px" height="109.333px" viewBox="0 0 382 109.333" enable-background="new 0 0 382 109.333" xml:space="preserve">
<g>
	<linearGradient id="SVGID_1_" gradientUnits="userSpaceOnUse" x1="160.5928" y1="23.3335" x2="160.5928" y2="100.8285">
		<stop  offset="0" style="stop-color:#EFEFEF"/>
		<stop  offset="0.2421" style="stop-color:#EFEFEF"/>
		<stop  offset="0.3632" style="stop-color:#DCDDDD"/>
		<stop  offset="0.5474" style="stop-color:#F7F8F8"/>
		<stop  offset="0.7842" style="stop-color:#F2F2F2"/>
		<stop  offset="1" style="stop-color:#F7F8F8"/>
	</linearGradient>
	<path fill="url(#SVGID_1_)" d="M180.305,64.07v-4.149h-6.743v2.853c0,2.594-1.297,3.891-3.891,3.891h-6.484
		c-2.942,0.175-4.324-1.207-4.15-4.149V56.03c9.508-3.802,16.251-10.72,20.231-20.75h-8.559c-2.25,5.706-6.14,10.205-11.672,13.487
		v-16.6h-8.559v20.49c-2.768,1.037-5.966,1.815-9.597,2.334v5.447c3.457-0.519,6.655-1.123,9.597-1.815v4.669
		c0,5.706,3.023,8.559,9.078,8.559h11.931C177.364,71.852,180.305,69.258,180.305,64.07z"/>
	<linearGradient id="SVGID_2_" gradientUnits="userSpaceOnUse" x1="131.5435" y1="23.3335" x2="131.5435" y2="100.8285">
		<stop  offset="0" style="stop-color:#EFEFEF"/>
		<stop  offset="0.2421" style="stop-color:#EFEFEF"/>
		<stop  offset="0.3632" style="stop-color:#DCDDDD"/>
		<stop  offset="0.5474" style="stop-color:#F7F8F8"/>
		<stop  offset="0.7842" style="stop-color:#F2F2F2"/>
		<stop  offset="1" style="stop-color:#F7F8F8"/>
	</linearGradient>
	<path fill="url(#SVGID_2_)" d="M133.619,32.168c-2.25,8.13-6.484,13.921-12.709,17.378v4.928c2.938-1.207,4.928-2.075,5.965-2.594
		c0.863-0.345,1.467-0.604,1.816-0.778v22.047h8.041V43.84c2.075-2.938,3.891-6.829,5.447-11.672H133.619z"/>
	<linearGradient id="SVGID_3_" gradientUnits="userSpaceOnUse" x1="150.4775" y1="23.3335" x2="150.4775" y2="100.8285">
		<stop  offset="0" style="stop-color:#EFEFEF"/>
		<stop  offset="0.2421" style="stop-color:#EFEFEF"/>
		<stop  offset="0.3632" style="stop-color:#DCDDDD"/>
		<stop  offset="0.5474" style="stop-color:#F7F8F8"/>
		<stop  offset="0.7842" style="stop-color:#F2F2F2"/>
		<stop  offset="1" style="stop-color:#F7F8F8"/>
	</linearGradient>
	<polygon fill="url(#SVGID_3_)" points="133.878,29.833 141.918,29.833 141.918,24.127 159.296,24.127 159.296,29.833 
		167.336,29.833 167.336,24.127 180.305,24.127 180.305,18.68 167.336,18.68 167.336,13.233 159.296,13.233 159.296,18.68 
		141.918,18.68 141.918,13.233 133.878,13.233 133.878,18.68 120.65,18.68 120.65,24.127 133.878,24.127 	"/>
	<linearGradient id="SVGID_4_" gradientUnits="userSpaceOnUse" x1="218.3042" y1="23.3335" x2="218.3042" y2="100.8285">
		<stop  offset="0" style="stop-color:#EFEFEF"/>
		<stop  offset="0.2421" style="stop-color:#EFEFEF"/>
		<stop  offset="0.3632" style="stop-color:#DCDDDD"/>
		<stop  offset="0.5474" style="stop-color:#F7F8F8"/>
		<stop  offset="0.7842" style="stop-color:#F2F2F2"/>
		<stop  offset="1" style="stop-color:#F7F8F8"/>
	</linearGradient>
	<path fill="url(#SVGID_4_)" d="M226.215,62.773h-7.263c-1.386,3.287-4.239,5.447-8.56,6.484v4.15
		C218.864,72.541,224.14,68.999,226.215,62.773z"/>
	<linearGradient id="SVGID_5_" gradientUnits="userSpaceOnUse" x1="238.7944" y1="23.3335" x2="238.7944" y2="100.8285">
		<stop  offset="0" style="stop-color:#EFEFEF"/>
		<stop  offset="0.2421" style="stop-color:#EFEFEF"/>
		<stop  offset="0.3632" style="stop-color:#DCDDDD"/>
		<stop  offset="0.5474" style="stop-color:#F7F8F8"/>
		<stop  offset="0.7842" style="stop-color:#F2F2F2"/>
		<stop  offset="1" style="stop-color:#F7F8F8"/>
	</linearGradient>
	<path fill="url(#SVGID_5_)" d="M246.706,73.408v-4.15c-4.15-1.037-7.003-3.197-8.559-6.484h-7.264
		C232.959,68.824,238.231,72.371,246.706,73.408z"/>
	<linearGradient id="SVGID_6_" gradientUnits="userSpaceOnUse" x1="228.6792" y1="23.3335" x2="228.6792" y2="100.8285">
		<stop  offset="0" style="stop-color:#EFEFEF"/>
		<stop  offset="0.2421" style="stop-color:#EFEFEF"/>
		<stop  offset="0.3632" style="stop-color:#DCDDDD"/>
		<stop  offset="0.5474" style="stop-color:#F7F8F8"/>
		<stop  offset="0.7842" style="stop-color:#F2F2F2"/>
		<stop  offset="1" style="stop-color:#F7F8F8"/>
	</linearGradient>
	<path fill="url(#SVGID_6_)" d="M246.965,56.549h-4.928V34.502h4.408v-4.928h-4.408v-3.891h-7.522v3.891h-11.672v-3.891H216.1
		c1.381-0.689,2.419-1.557,3.111-2.594h27.494v-4.929h-24.121c0.17-0.519,0.43-1.297,0.777-2.334c0.17-0.863,0.345-1.557,0.52-2.075
		h-7.522c-0.349,4.499-2.335,7.781-5.966,9.856v4.409c1.9-0.519,3.631-1.208,5.188-2.075v3.632h-4.668v4.928h4.668v22.047h-5.188
		v4.669h36.572V56.549z M234.515,56.549h-11.672V52.14h11.672V56.549z M234.515,47.471h-11.672v-4.15h11.672V47.471z
		 M234.515,38.652h-11.672v-4.15h11.672V38.652z"/>
	<linearGradient id="SVGID_7_" gradientUnits="userSpaceOnUse" x1="198.0728" y1="23.3335" x2="198.0728" y2="100.8285">
		<stop  offset="0" style="stop-color:#EFEFEF"/>
		<stop  offset="0.2421" style="stop-color:#EFEFEF"/>
		<stop  offset="0.3632" style="stop-color:#DCDDDD"/>
		<stop  offset="0.5474" style="stop-color:#F7F8F8"/>
		<stop  offset="0.7842" style="stop-color:#F2F2F2"/>
		<stop  offset="1" style="stop-color:#F7F8F8"/>
	</linearGradient>
	<path fill="url(#SVGID_7_)" d="M208.836,64.07V32.687h-10.634v-3.891v-4.15h11.413v-5.188h-7.004v-5.446h-7.781v5.446h-7.521v5.188
		h4.15v6.484c0,10.375-0.35,17.727-1.038,22.047c-0.519,4.499-1.815,8.819-3.891,12.969v7.263
		c7.781-6.914,11.583-18.76,11.413-35.534h4.149v25.678c0.171,2.249-0.952,3.372-3.372,3.372h-2.074v4.669h4.668
		C206.502,71.763,209.007,69.258,208.836,64.07z"/>
	<linearGradient id="SVGID_8_" gradientUnits="userSpaceOnUse" x1="263.0464" y1="23.3335" x2="263.0464" y2="100.8285">
		<stop  offset="0" style="stop-color:#EFEFEF"/>
		<stop  offset="0.2421" style="stop-color:#EFEFEF"/>
		<stop  offset="0.3632" style="stop-color:#DCDDDD"/>
		<stop  offset="0.5474" style="stop-color:#F7F8F8"/>
		<stop  offset="0.7842" style="stop-color:#F2F2F2"/>
		<stop  offset="1" style="stop-color:#F7F8F8"/>
	</linearGradient>
	<path fill="url(#SVGID_8_)" d="M264.862,14.012c-1.904,9.686-5.965,16.43-12.19,20.23v4.669c2.594-0.688,5.013-1.642,7.263-2.853
		v37.35h8.041V28.018c2.074-3.112,3.891-7.781,5.446-14.006H264.862z"/>
	<linearGradient id="SVGID_9_" gradientUnits="userSpaceOnUse" x1="303.2495" y1="23.3335" x2="303.2495" y2="100.8285">
		<stop  offset="0" style="stop-color:#EFEFEF"/>
		<stop  offset="0.2421" style="stop-color:#EFEFEF"/>
		<stop  offset="0.3632" style="stop-color:#DCDDDD"/>
		<stop  offset="0.5474" style="stop-color:#F7F8F8"/>
		<stop  offset="0.7842" style="stop-color:#F2F2F2"/>
		<stop  offset="1" style="stop-color:#F7F8F8"/>
	</linearGradient>
	<path fill="url(#SVGID_9_)" d="M308.437,25.684c-0.519-3.113-1.73-6.744-3.632-10.895h-6.743c1.727,3.287,2.853,6.919,3.372,10.895
		H308.437z"/>
	<linearGradient id="SVGID_10_" gradientUnits="userSpaceOnUse" x1="292.4888" y1="23.3335" x2="292.4888" y2="100.8285">
		<stop  offset="0" style="stop-color:#EFEFEF"/>
		<stop  offset="0.2421" style="stop-color:#EFEFEF"/>
		<stop  offset="0.3632" style="stop-color:#DCDDDD"/>
		<stop  offset="0.5474" style="stop-color:#F7F8F8"/>
		<stop  offset="0.7842" style="stop-color:#F2F2F2"/>
		<stop  offset="1" style="stop-color:#F7F8F8"/>
	</linearGradient>
	<path fill="url(#SVGID_10_)" d="M304.028,67.184c-4.499-0.175-7.611-5.188-9.338-15.044c-0.867-4.32-1.557-10.286-2.074-17.897
		h20.23v-5.706h-20.49c0-4.32-0.09-9.337-0.26-15.044h-8.818c0,5.362,0.17,10.375,0.519,15.044h-12.45v5.706h12.709
		c0.52,6.918,1.297,12.884,2.335,17.897c2.938,14.181,8.819,21.18,17.638,21.009c6.569,0.171,9.767-3.201,9.597-10.115h-5.966
		C307.659,65.976,306.448,67.354,304.028,67.184z"/>
	<linearGradient id="SVGID_11_" gradientUnits="userSpaceOnUse" x1="349.106" y1="23.3335" x2="349.106" y2="100.8285">
		<stop  offset="0" style="stop-color:#EFEFEF"/>
		<stop  offset="0.2421" style="stop-color:#EFEFEF"/>
		<stop  offset="0.3632" style="stop-color:#DCDDDD"/>
		<stop  offset="0.5474" style="stop-color:#F7F8F8"/>
		<stop  offset="0.7842" style="stop-color:#F2F2F2"/>
		<stop  offset="1" style="stop-color:#F7F8F8"/>
	</linearGradient>
	<path fill="url(#SVGID_11_)" d="M353.126,45.842v-4.049h21.582v-3.905h-21.582v-2.374h12.134c5.706,0.344,8.385-2.164,8.04-7.521
		v-0.075h4.908v-3.906H373.3v-7.951h-20.174v-2.777h-8.041v2.777h-19.752v3.891h19.752v4.061h-24.877v3.906h24.877v3.706h-19.752
		v3.891h19.752v2.374h-21.627v3.905h21.627v4.049h-26.067v4.409h60.175v-4.409H353.126z M353.126,19.952h12.134v4.061h-12.134
		V19.952z M353.126,27.918h12.134v0.075v0.777c0.17,2.075-0.868,3.023-3.113,2.854h-9.021V27.918z"/>
	<linearGradient id="SVGID_12_" gradientUnits="userSpaceOnUse" x1="349.106" y1="23.3335" x2="349.106" y2="100.8285">
		<stop  offset="0" style="stop-color:#EFEFEF"/>
		<stop  offset="0.2421" style="stop-color:#EFEFEF"/>
		<stop  offset="0.3632" style="stop-color:#DCDDDD"/>
		<stop  offset="0.5474" style="stop-color:#F7F8F8"/>
		<stop  offset="0.7842" style="stop-color:#F2F2F2"/>
		<stop  offset="1" style="stop-color:#F7F8F8"/>
	</linearGradient>
	<path fill="url(#SVGID_12_)" d="M372.175,65.974V54.042h-46.169v19.453h38.129C369.841,73.84,372.52,71.332,372.175,65.974z
		 M334.047,57.933h30.088v4.15h-30.088V57.933z M361.022,69.605h-26.975v-3.631h30.088v0.777
		C364.305,68.827,363.267,69.775,361.022,69.605z"/>
	<linearGradient id="SVGID_13_" gradientUnits="userSpaceOnUse" x1="54.7769" y1="23.3335" x2="54.7769" y2="100.8285">
		<stop  offset="0" style="stop-color:#EFEFEF"/>
		<stop  offset="0.2421" style="stop-color:#EFEFEF"/>
		<stop  offset="0.3632" style="stop-color:#DCDDDD"/>
		<stop  offset="0.5474" style="stop-color:#F7F8F8"/>
		<stop  offset="0.7842" style="stop-color:#F2F2F2"/>
		<stop  offset="1" style="stop-color:#F7F8F8"/>
	</linearGradient>
	<polygon fill="url(#SVGID_13_)" points="54.777,42.991 43.725,54.043 54.777,65.095 65.829,54.043 	"/>
	<linearGradient id="SVGID_14_" gradientUnits="userSpaceOnUse" x1="54.7764" y1="23.3335" x2="54.7764" y2="100.8285">
		<stop  offset="0" style="stop-color:#EFEFEF"/>
		<stop  offset="0.2421" style="stop-color:#EFEFEF"/>
		<stop  offset="0.3632" style="stop-color:#DCDDDD"/>
		<stop  offset="0.5474" style="stop-color:#F7F8F8"/>
		<stop  offset="0.7842" style="stop-color:#F2F2F2"/>
		<stop  offset="1" style="stop-color:#F7F8F8"/>
	</linearGradient>
	<path fill="url(#SVGID_14_)" d="M54.777,2.124c-28.675,0-51.919,23.245-51.919,51.919s23.245,51.919,51.919,51.919
		c28.674,0,51.919-23.245,51.919-51.919S83.451,2.124,54.777,2.124z M59.051,95.487V76.713v-1.748v-0.075L35.716,51.565l4.839-4.833
		l4.081,4.079l6.216-6.217L40.555,34.298l-17.27,17.268l27.216,27.219v16.703c-20.972-2.148-37.387-19.914-37.387-41.444
		s16.417-39.297,37.388-41.444V31.4v1.747v0.075l23.333,23.324L69,61.381l-4.08-4.08l-6.217,6.216L69,73.815l17.27-17.269
		L59.051,29.329v-16.73c20.972,2.147,37.388,19.915,37.388,41.444S80.023,93.34,59.051,95.487z"/>
	<linearGradient id="SVGID_15_" gradientUnits="userSpaceOnUse" x1="122.2012" y1="23.3335" x2="122.2012" y2="100.8285">
		<stop  offset="0" style="stop-color:#EFEFEF"/>
		<stop  offset="0.2421" style="stop-color:#EFEFEF"/>
		<stop  offset="0.3632" style="stop-color:#DCDDDD"/>
		<stop  offset="0.5474" style="stop-color:#F7F8F8"/>
		<stop  offset="0.7842" style="stop-color:#F2F2F2"/>
		<stop  offset="1" style="stop-color:#F7F8F8"/>
	</linearGradient>
	<path fill="url(#SVGID_15_)" d="M125.422,84.686c-0.509-0.03-1.033-0.045-1.557-0.045c-0.655,0-1.304,0.043-1.929,0.129
		c-0.674,0.093-1.307,0.27-1.879,0.526c-0.596,0.266-1.135,0.635-1.603,1.097c-0.491,0.485-0.875,1.113-1.14,1.865
		c-0.263,0.723-0.465,1.554-0.596,2.463c-0.128,0.889-0.193,1.805-0.193,2.723c0,0.956,0.085,1.933,0.252,2.902
		c0.169,0.984,0.407,1.851,0.708,2.575l0.01,0.024l0.011,0.023c0.294,0.616,0.702,1.134,1.211,1.542
		c0.47,0.375,1.003,0.68,1.584,0.905c0.556,0.216,1.16,0.371,1.793,0.461c0.607,0.087,1.232,0.131,1.857,0.131
		c0.462,0,0.946-0.016,1.438-0.046l1.36-0.087l1.02-0.067l-0.09-1.019l-0.131-1.486l-0.086-0.978l-0.979,0.068l-0.949,0.065
		l-0.328,0.022c-0.4,0.027-0.822,0.041-1.254,0.041c-0.43,0-0.853-0.021-1.256-0.061c-0.37-0.037-0.71-0.104-1.012-0.199
		c-0.27-0.084-0.505-0.198-0.701-0.339c-0.144-0.103-0.245-0.227-0.318-0.388c-0.205-0.482-0.37-1.091-0.48-1.788
		c-0.115-0.722-0.173-1.497-0.173-2.302c0-0.721,0.052-1.44,0.154-2.14c0.1-0.688,0.244-1.318,0.429-1.872
		c0.077-0.206,0.2-0.392,0.365-0.536c0.208-0.183,0.45-0.331,0.717-0.44c0.29-0.119,0.615-0.204,0.966-0.25
		c0.392-0.052,0.803-0.079,1.223-0.079c0.426,0,0.873,0.014,1.328,0.042c0.461,0.029,0.921,0.064,1.377,0.107l1,0.093l0.088-1.001
		l0.131-1.486l0.087-0.99l-0.99-0.093C126.41,84.752,125.921,84.715,125.422,84.686z"/>
	<linearGradient id="SVGID_16_" gradientUnits="userSpaceOnUse" x1="132.3462" y1="23.3335" x2="132.3462" y2="100.8285">
		<stop  offset="0" style="stop-color:#EFEFEF"/>
		<stop  offset="0.2421" style="stop-color:#EFEFEF"/>
		<stop  offset="0.3632" style="stop-color:#DCDDDD"/>
		<stop  offset="0.5474" style="stop-color:#F7F8F8"/>
		<stop  offset="0.7842" style="stop-color:#F2F2F2"/>
		<stop  offset="1" style="stop-color:#F7F8F8"/>
	</linearGradient>
	<polygon fill="url(#SVGID_16_)" points="131.603,84.662 130.603,84.662 130.603,85.662 130.603,101.008 130.603,102.008 
		131.603,102.008 133.089,102.008 134.089,102.008 134.089,101.008 134.089,85.662 134.089,84.662 133.089,84.662 	"/>
	<linearGradient id="SVGID_17_" gradientUnits="userSpaceOnUse" x1="143.582" y1="23.3335" x2="143.582" y2="100.8285">
		<stop  offset="0" style="stop-color:#EFEFEF"/>
		<stop  offset="0.2421" style="stop-color:#EFEFEF"/>
		<stop  offset="0.3632" style="stop-color:#DCDDDD"/>
		<stop  offset="0.5474" style="stop-color:#F7F8F8"/>
		<stop  offset="0.7842" style="stop-color:#F2F2F2"/>
		<stop  offset="1" style="stop-color:#F7F8F8"/>
	</linearGradient>
	<polygon fill="url(#SVGID_17_)" points="138.27,84.815 137.27,84.815 137.27,85.815 137.27,87.301 137.27,88.301 138.27,88.301 
		141.795,88.301 141.795,101.029 141.795,102.029 142.795,102.029 144.282,102.029 145.282,102.029 145.282,101.029 145.282,88.301 
		148.894,88.301 149.894,88.301 149.894,87.301 149.894,85.815 149.894,84.815 148.894,84.815 	"/>
	<linearGradient id="SVGID_18_" gradientUnits="userSpaceOnUse" x1="154.8403" y1="23.3335" x2="154.8403" y2="100.8285">
		<stop  offset="0" style="stop-color:#EFEFEF"/>
		<stop  offset="0.2421" style="stop-color:#EFEFEF"/>
		<stop  offset="0.3632" style="stop-color:#DCDDDD"/>
		<stop  offset="0.5474" style="stop-color:#F7F8F8"/>
		<stop  offset="0.7842" style="stop-color:#F2F2F2"/>
		<stop  offset="1" style="stop-color:#F7F8F8"/>
	</linearGradient>
	<polygon fill="url(#SVGID_18_)" points="154.097,84.662 153.097,84.662 153.097,85.662 153.097,101.008 153.097,102.008 
		154.097,102.008 155.583,102.008 156.583,102.008 156.583,101.008 156.583,85.662 156.583,84.662 155.583,84.662 	"/>
	<linearGradient id="SVGID_19_" gradientUnits="userSpaceOnUse" x1="181.6821" y1="23.3335" x2="181.6821" y2="100.8285">
		<stop  offset="0" style="stop-color:#EFEFEF"/>
		<stop  offset="0.2421" style="stop-color:#EFEFEF"/>
		<stop  offset="0.3632" style="stop-color:#DCDDDD"/>
		<stop  offset="0.5474" style="stop-color:#F7F8F8"/>
		<stop  offset="0.7842" style="stop-color:#F2F2F2"/>
		<stop  offset="1" style="stop-color:#F7F8F8"/>
	</linearGradient>
	<path fill="url(#SVGID_19_)" d="M179.82,91.417v-1.536c-0.011-0.672,0.119-1.158,0.384-1.459c0.247-0.279,0.549-0.404,0.978-0.404
		h4.656h1v-1v-1.486v-1h-1h-4.656c-1.462,0-2.659,0.484-3.559,1.44c-0.891,0.945-1.323,2.275-1.289,3.953v7.324
		c0.018,0.797,0.148,1.493,0.391,2.091c0.244,0.609,0.583,1.133,1.007,1.557c0.43,0.431,0.943,0.756,1.526,0.966
		c0.55,0.199,1.153,0.3,1.793,0.3h4.699h1v-1v-1.486v-1h-1h-4.699c-0.365,0-0.646-0.105-0.88-0.332
		c-0.223-0.215-0.341-0.604-0.351-1.156v-2.284h6.214h1v-1v-1.486v-1h-1H179.82z"/>
	<linearGradient id="SVGID_20_" gradientUnits="userSpaceOnUse" x1="195.3901" y1="23.3335" x2="195.3901" y2="100.8285">
		<stop  offset="0" style="stop-color:#EFEFEF"/>
		<stop  offset="0.2421" style="stop-color:#EFEFEF"/>
		<stop  offset="0.3632" style="stop-color:#DCDDDD"/>
		<stop  offset="0.5474" style="stop-color:#F7F8F8"/>
		<stop  offset="0.7842" style="stop-color:#F2F2F2"/>
		<stop  offset="1" style="stop-color:#F7F8F8"/>
	</linearGradient>
	<path fill="url(#SVGID_20_)" d="M199.676,93.944c-0.333-0.358-0.712-0.686-1.126-0.973c-0.383-0.266-0.802-0.521-1.243-0.758
		c-0.422-0.226-0.85-0.443-1.285-0.653c-0.437-0.204-0.847-0.405-1.241-0.61c-0.349-0.181-0.655-0.377-0.91-0.586
		c-0.226-0.183-0.4-0.376-0.523-0.578c-0.078-0.129-0.112-0.274-0.105-0.457c0.009-0.282,0.063-0.496,0.161-0.643
		c0.11-0.165,0.254-0.292,0.439-0.389c0.239-0.125,0.529-0.217,0.859-0.272c0.383-0.063,0.798-0.096,1.235-0.096
		c0.485,0,1.011,0.031,1.562,0.092c0.579,0.065,1.161,0.14,1.748,0.225l0.975,0.143l0.157-0.972l0.24-1.486l0.162-1.002
		l-1.005-0.146c-0.611-0.09-1.239-0.168-1.864-0.235c-0.652-0.069-1.316-0.104-1.975-0.104c-0.748,0-1.467,0.069-2.135,0.206
		c-0.721,0.147-1.372,0.402-1.937,0.755c-0.599,0.374-1.091,0.875-1.462,1.489c-0.374,0.616-0.592,1.373-0.646,2.249l-0.003,0.044
		l0.001,0.044c0.02,0.71,0.191,1.373,0.514,1.968c0.295,0.548,0.684,1.052,1.155,1.498c0.444,0.419,0.949,0.801,1.503,1.135
		c0.516,0.312,1.05,0.602,1.589,0.863c0.337,0.168,0.68,0.342,1.021,0.516c0.309,0.158,0.601,0.327,0.866,0.502
		c0.239,0.158,0.451,0.329,0.631,0.507c0.13,0.13,0.231,0.264,0.299,0.396c0.065,0.18,0.118,0.352,0.157,0.511
		c0.031,0.129,0.048,0.26,0.048,0.385c0,0.196-0.056,0.459-0.493,0.767c-0.301,0.211-0.957,0.463-2.376,0.463
		c-0.427,0-0.895-0.027-1.39-0.082c-0.502-0.055-1.053-0.139-1.637-0.25l-0.977-0.186l-0.192,0.975l-0.284,1.442l-0.193,0.982
		l0.982,0.193c0.688,0.135,1.353,0.239,1.972,0.308c0.626,0.069,1.204,0.104,1.719,0.104c1.019,0,1.922-0.108,2.685-0.321
		c0.798-0.223,1.475-0.544,2.012-0.956c0.566-0.436,0.991-0.96,1.264-1.561c0.263-0.584,0.396-1.215,0.396-1.878
		c0-0.682-0.165-1.428-0.49-2.217C200.329,94.791,200.04,94.336,199.676,93.944z"/>
	<linearGradient id="SVGID_21_" gradientUnits="userSpaceOnUse" x1="209.9028" y1="23.3335" x2="209.9028" y2="100.8285">
		<stop  offset="0" style="stop-color:#EFEFEF"/>
		<stop  offset="0.2421" style="stop-color:#EFEFEF"/>
		<stop  offset="0.3632" style="stop-color:#DCDDDD"/>
		<stop  offset="0.5474" style="stop-color:#F7F8F8"/>
		<stop  offset="0.7842" style="stop-color:#F2F2F2"/>
		<stop  offset="1" style="stop-color:#F7F8F8"/>
	</linearGradient>
	<path fill="url(#SVGID_21_)" d="M213.124,84.686c-0.509-0.03-1.032-0.045-1.557-0.045c-0.654,0-1.304,0.043-1.929,0.129
		c-0.675,0.093-1.307,0.27-1.88,0.526c-0.595,0.266-1.135,0.635-1.602,1.097c-0.491,0.485-0.875,1.113-1.141,1.865
		c-0.262,0.721-0.464,1.553-0.595,2.463c-0.129,0.892-0.194,1.807-0.194,2.723c0,0.956,0.085,1.933,0.252,2.902
		c0.17,0.989,0.409,1.856,0.709,2.576l0.01,0.023l0.011,0.023c0.294,0.617,0.701,1.135,1.211,1.542
		c0.469,0.375,1.002,0.68,1.583,0.905c0.556,0.216,1.16,0.371,1.794,0.461c0.607,0.087,1.231,0.131,1.857,0.131
		c0.462,0,0.946-0.016,1.439-0.046l1.358-0.087l1.021-0.067l-0.09-1.019l-0.131-1.486l-0.086-0.978l-0.979,0.068l-0.973,0.066
		l-0.305,0.021c-0.4,0.027-0.823,0.041-1.255,0.041c-0.43,0-0.853-0.021-1.256-0.061c-0.369-0.037-0.71-0.104-1.012-0.199
		c-0.27-0.084-0.505-0.198-0.701-0.339c-0.144-0.104-0.245-0.227-0.317-0.388c-0.206-0.486-0.371-1.095-0.48-1.787
		c-0.115-0.727-0.174-1.502-0.174-2.304c0-0.721,0.052-1.44,0.153-2.14c0.102-0.692,0.245-1.321,0.43-1.87
		c0.077-0.208,0.2-0.394,0.364-0.537c0.209-0.183,0.45-0.331,0.718-0.441c0.29-0.119,0.615-0.204,0.966-0.25
		c0.392-0.052,0.804-0.079,1.223-0.079c0.427,0,0.873,0.014,1.327,0.042c0.461,0.029,0.921,0.064,1.378,0.107l1.001,0.093
		l0.088-1.001l0.131-1.486l0.087-0.99l-0.989-0.093C214.113,84.752,213.624,84.715,213.124,84.686z"/>
	<linearGradient id="SVGID_22_" gradientUnits="userSpaceOnUse" x1="224.5728" y1="23.3335" x2="224.5728" y2="100.8285">
		<stop  offset="0" style="stop-color:#EFEFEF"/>
		<stop  offset="0.2421" style="stop-color:#EFEFEF"/>
		<stop  offset="0.3632" style="stop-color:#DCDDDD"/>
		<stop  offset="0.5474" style="stop-color:#F7F8F8"/>
		<stop  offset="0.7842" style="stop-color:#F2F2F2"/>
		<stop  offset="1" style="stop-color:#F7F8F8"/>
	</linearGradient>
	<path fill="url(#SVGID_22_)" d="M227.229,94.986c0.069-0.031,0.138-0.063,0.205-0.095l0.038-0.018l0.035-0.021
		c0.415-0.245,0.787-0.559,1.106-0.935c0.295-0.347,0.55-0.726,0.759-1.126c0.212-0.403,0.373-0.834,0.479-1.279
		c0.105-0.437,0.159-0.883,0.159-1.325c0-0.481-0.057-0.969-0.169-1.451c-0.111-0.483-0.279-0.945-0.497-1.375
		c-0.226-0.441-0.503-0.839-0.824-1.188c-0.338-0.367-0.731-0.669-1.169-0.897c-0.6-0.299-1.248-0.504-1.943-0.614
		c-0.648-0.103-1.349-0.154-2.081-0.154c-0.348,0-0.718,0.007-1.11,0.023c-0.391,0.015-0.782,0.038-1.174,0.067l-1.047,0.063h-0.67
		h-1v1v15.412v1h1h1.486h1v-1v-5.381c0.131,0.006,0.264,0.013,0.399,0.019c0.334,0.015,0.663,0.023,0.983,0.023h0.4l3.758,6.001
		l0.539,0.861l0.853-0.553l1.246-0.809l0.827-0.537l-0.524-0.834L227.229,94.986z M223.328,87.995c0.515,0,0.998,0.033,1.438,0.099
		c0.356,0.053,0.675,0.139,0.947,0.255c0.069,0.055,0.142,0.131,0.216,0.226c0.122,0.155,0.231,0.326,0.325,0.508
		c0.087,0.17,0.155,0.354,0.201,0.543c0.047,0.192,0.07,0.382,0.07,0.562c0,0.371-0.072,0.714-0.221,1.047
		c-0.119,0.27-0.288,0.461-0.531,0.604c-0.258,0.143-0.606,0.247-1.014,0.296c-0.5,0.061-1.025,0.091-1.563,0.091
		c-0.283,0-0.573-0.003-0.87-0.011c-0.177-0.004-0.348-0.01-0.513-0.016v-4.155c0.182-0.011,0.357-0.02,0.529-0.027
		C222.676,88.002,223.005,87.995,223.328,87.995z"/>
	<linearGradient id="SVGID_23_" gradientUnits="userSpaceOnUse" x1="240.0054" y1="23.3335" x2="240.0054" y2="100.8285">
		<stop  offset="0" style="stop-color:#EFEFEF"/>
		<stop  offset="0.2421" style="stop-color:#EFEFEF"/>
		<stop  offset="0.3632" style="stop-color:#DCDDDD"/>
		<stop  offset="0.5474" style="stop-color:#F7F8F8"/>
		<stop  offset="0.7842" style="stop-color:#F2F2F2"/>
		<stop  offset="1" style="stop-color:#F7F8F8"/>
	</linearGradient>
	<path fill="url(#SVGID_23_)" d="M246.646,93.291c0-0.964-0.065-1.906-0.196-2.8c-0.134-0.921-0.34-1.753-0.611-2.472
		c-0.464-1.176-1.179-2.061-2.13-2.642c-0.908-0.554-2.008-0.86-3.269-0.911c-0.091-0.003-0.168-0.004-0.246-0.004
		c-0.514,0-1.036,0.047-1.554,0.139c-0.622,0.11-1.219,0.305-1.775,0.579c-0.573,0.283-1.095,0.661-1.551,1.126
		c-0.476,0.484-0.852,1.091-1.119,1.803l-1.581,4.214l0.841-0.823c-0.059,0.604-0.088,1.219-0.088,1.834
		c0,0.964,0.065,1.906,0.196,2.8c0.134,0.921,0.34,1.752,0.611,2.472c0.464,1.177,1.18,2.062,2.131,2.642
		c0.907,0.554,2.015,0.86,3.289,0.911c0.091,0.003,0.168,0.004,0.246,0.004c0.513,0,1.035-0.047,1.554-0.138
		c0.624-0.112,1.22-0.308,1.77-0.582c0.564-0.282,1.081-0.66,1.535-1.124c0.476-0.485,0.853-1.091,1.119-1.803l1.579-4.212
		l-0.839,0.821C246.617,94.521,246.646,93.907,246.646,93.291z M239.871,98.678c-0.059,0-0.118-0.001-0.177-0.003
		c-0.594-0.022-1.088-0.153-1.47-0.388c-0.349-0.215-0.6-0.52-0.766-0.933c-0.168-0.481-0.318-1.104-0.433-1.808
		c-0.115-0.707-0.173-1.451-0.173-2.212c0-0.75,0.052-1.484,0.153-2.184c0.098-0.67,0.25-1.267,0.453-1.772
		c0.105-0.284,0.233-0.491,0.4-0.659c0.188-0.187,0.396-0.332,0.641-0.444c0.266-0.122,0.557-0.21,0.862-0.261
		c0.265-0.044,0.534-0.066,0.8-0.066c0.06,0,0.119,0.001,0.179,0.003c0.579,0.022,1.066,0.153,1.447,0.387
		c0.348,0.215,0.599,0.521,0.767,0.934c0.167,0.48,0.317,1.103,0.432,1.807c0.114,0.712,0.173,1.457,0.173,2.212
		c0,0.736-0.052,1.467-0.153,2.174c-0.098,0.672-0.255,1.275-0.47,1.794c-0.108,0.29-0.234,0.491-0.397,0.65
		c-0.189,0.185-0.405,0.335-0.641,0.448c-0.253,0.121-0.522,0.205-0.825,0.255C240.406,98.656,240.135,98.678,239.871,98.678z"/>
	<linearGradient id="SVGID_24_" gradientUnits="userSpaceOnUse" x1="258.272" y1="23.3335" x2="258.272" y2="100.8285">
		<stop  offset="0" style="stop-color:#EFEFEF"/>
		<stop  offset="0.2421" style="stop-color:#EFEFEF"/>
		<stop  offset="0.3632" style="stop-color:#DCDDDD"/>
		<stop  offset="0.5474" style="stop-color:#F7F8F8"/>
		<stop  offset="0.7842" style="stop-color:#F2F2F2"/>
		<stop  offset="1" style="stop-color:#F7F8F8"/>
	</linearGradient>
	<polygon fill="url(#SVGID_24_)" points="264.705,84.44 263.724,84.247 263.53,85.228 261.757,94.201 259.799,89.312 
		259.547,88.684 258.871,88.684 257.582,88.684 256.907,88.684 256.654,89.31 254.697,94.164 253.011,85.214 252.828,84.238 
		251.85,84.416 250.408,84.678 249.417,84.858 249.604,85.847 252.446,100.93 252.599,101.745 253.428,101.745 254.717,101.745 
		255.393,101.745 255.645,101.118 258.218,94.719 260.808,101.12 261.061,101.745 261.735,101.745 263.002,101.745 263.826,101.745 
		263.984,100.938 266.935,85.898 267.127,84.917 266.147,84.725 	"/>
	<linearGradient id="SVGID_25_" gradientUnits="userSpaceOnUse" x1="292.688" y1="23.3335" x2="292.688" y2="100.8285">
		<stop  offset="0" style="stop-color:#EFEFEF"/>
		<stop  offset="0.2421" style="stop-color:#EFEFEF"/>
		<stop  offset="0.3632" style="stop-color:#DCDDDD"/>
		<stop  offset="0.5474" style="stop-color:#F7F8F8"/>
		<stop  offset="0.7842" style="stop-color:#F2F2F2"/>
		<stop  offset="1" style="stop-color:#F7F8F8"/>
	</linearGradient>
	<path fill="url(#SVGID_25_)" d="M299.329,93.291c0-0.964-0.066-1.906-0.196-2.8c-0.134-0.921-0.34-1.753-0.611-2.472
		c-0.464-1.176-1.179-2.061-2.13-2.642c-0.908-0.554-2.008-0.86-3.269-0.911c-0.091-0.003-0.168-0.004-0.246-0.004
		c-0.514,0-1.036,0.047-1.554,0.139c-0.622,0.11-1.219,0.305-1.775,0.579c-0.573,0.283-1.095,0.661-1.551,1.126
		c-0.476,0.484-0.852,1.091-1.119,1.803l-1.581,4.214l0.841-0.823c-0.059,0.604-0.088,1.219-0.088,1.834
		c0,0.964,0.066,1.906,0.196,2.8c0.134,0.921,0.34,1.752,0.611,2.472c0.464,1.177,1.179,2.062,2.131,2.642
		c0.907,0.554,2.015,0.86,3.289,0.911c0.091,0.003,0.168,0.004,0.246,0.004c0.513,0,1.035-0.047,1.554-0.138
		c0.624-0.112,1.22-0.308,1.77-0.582c0.564-0.282,1.081-0.66,1.535-1.124c0.476-0.485,0.853-1.091,1.119-1.803l1.579-4.212
		l-0.839,0.821C299.299,94.521,299.329,93.907,299.329,93.291z M292.553,98.678c-0.059,0-0.118-0.001-0.177-0.003
		c-0.594-0.022-1.088-0.153-1.47-0.388c-0.349-0.215-0.6-0.52-0.766-0.933c-0.168-0.481-0.318-1.104-0.433-1.808
		c-0.114-0.707-0.173-1.451-0.173-2.212c0-0.75,0.052-1.484,0.153-2.184c0.098-0.67,0.25-1.267,0.453-1.772
		c0.104-0.284,0.233-0.491,0.4-0.659c0.188-0.187,0.396-0.332,0.641-0.444c0.266-0.122,0.557-0.21,0.862-0.261
		c0.265-0.044,0.534-0.066,0.8-0.066c0.06,0,0.119,0.001,0.179,0.003c0.579,0.022,1.066,0.153,1.447,0.387
		c0.348,0.215,0.599,0.521,0.767,0.934c0.167,0.48,0.317,1.103,0.432,1.807c0.114,0.712,0.173,1.457,0.173,2.212
		c0,0.736-0.052,1.467-0.153,2.174c-0.098,0.672-0.255,1.275-0.47,1.794c-0.108,0.29-0.234,0.491-0.397,0.65
		c-0.189,0.185-0.405,0.335-0.641,0.448c-0.253,0.121-0.522,0.205-0.825,0.255C293.088,98.656,292.818,98.678,292.553,98.678z"/>
	<linearGradient id="SVGID_26_" gradientUnits="userSpaceOnUse" x1="308.1548" y1="23.3335" x2="308.1548" y2="100.8285">
		<stop  offset="0" style="stop-color:#EFEFEF"/>
		<stop  offset="0.2421" style="stop-color:#EFEFEF"/>
		<stop  offset="0.3632" style="stop-color:#DCDDDD"/>
		<stop  offset="0.5474" style="stop-color:#F7F8F8"/>
		<stop  offset="0.7842" style="stop-color:#F2F2F2"/>
		<stop  offset="1" style="stop-color:#F7F8F8"/>
	</linearGradient>
	<path fill="url(#SVGID_26_)" d="M306.324,91.395v-1.536c-0.011-0.67,0.117-1.15,0.379-1.442c0.247-0.276,0.55-0.4,0.981-0.4h4.656
		h1v-1v-1.486v-1h-1h-4.656c-0.708,0-1.366,0.12-1.956,0.355c-0.615,0.246-1.148,0.616-1.585,1.101
		c-0.424,0.47-0.753,1.042-0.979,1.7c-0.218,0.636-0.327,1.366-0.327,2.172v11.083v1h1h1.486h1v-1v-6.061h6.148h1v-1v-1.487v-1h-1
		H306.324z"/>
	<linearGradient id="SVGID_27_" gradientUnits="userSpaceOnUse" x1="321.5767" y1="23.3335" x2="321.5767" y2="100.8285">
		<stop  offset="0" style="stop-color:#EFEFEF"/>
		<stop  offset="0.2421" style="stop-color:#EFEFEF"/>
		<stop  offset="0.3632" style="stop-color:#DCDDDD"/>
		<stop  offset="0.5474" style="stop-color:#F7F8F8"/>
		<stop  offset="0.7842" style="stop-color:#F2F2F2"/>
		<stop  offset="1" style="stop-color:#F7F8F8"/>
	</linearGradient>
	<path fill="url(#SVGID_27_)" d="M319.746,91.395v-1.536c-0.011-0.67,0.117-1.15,0.379-1.442c0.247-0.276,0.55-0.4,0.981-0.4h4.656
		h1v-1v-1.486v-1h-1h-4.656c-0.708,0-1.366,0.12-1.956,0.355c-0.615,0.246-1.148,0.616-1.585,1.101
		c-0.424,0.47-0.753,1.042-0.979,1.7c-0.218,0.636-0.327,1.366-0.327,2.172v11.083v1h1h1.486h1v-1v-6.061h6.148h1v-1v-1.487v-1h-1
		H319.746z"/>
	<linearGradient id="SVGID_28_" gradientUnits="userSpaceOnUse" x1="331.5552" y1="23.3335" x2="331.5552" y2="100.8285">
		<stop  offset="0" style="stop-color:#EFEFEF"/>
		<stop  offset="0.2421" style="stop-color:#EFEFEF"/>
		<stop  offset="0.3632" style="stop-color:#DCDDDD"/>
		<stop  offset="0.5474" style="stop-color:#F7F8F8"/>
		<stop  offset="0.7842" style="stop-color:#F2F2F2"/>
		<stop  offset="1" style="stop-color:#F7F8F8"/>
	</linearGradient>
	<polygon fill="url(#SVGID_28_)" points="330.812,84.662 329.812,84.662 329.812,85.662 329.812,101.008 329.812,102.008 
		330.812,102.008 332.298,102.008 333.298,102.008 333.298,101.008 333.298,85.662 333.298,84.662 332.298,84.662 	"/>
	<linearGradient id="SVGID_29_" gradientUnits="userSpaceOnUse" x1="342.395" y1="23.3335" x2="342.395" y2="100.8285">
		<stop  offset="0" style="stop-color:#EFEFEF"/>
		<stop  offset="0.2421" style="stop-color:#EFEFEF"/>
		<stop  offset="0.3632" style="stop-color:#DCDDDD"/>
		<stop  offset="0.5474" style="stop-color:#F7F8F8"/>
		<stop  offset="0.7842" style="stop-color:#F2F2F2"/>
		<stop  offset="1" style="stop-color:#F7F8F8"/>
	</linearGradient>
	<path fill="url(#SVGID_29_)" d="M345.616,84.686c-0.509-0.03-1.032-0.045-1.557-0.045c-0.654,0-1.304,0.043-1.929,0.129
		c-0.675,0.093-1.307,0.27-1.88,0.526c-0.595,0.266-1.135,0.635-1.602,1.097c-0.491,0.485-0.875,1.113-1.141,1.865
		c-0.262,0.721-0.464,1.553-0.595,2.463c-0.129,0.892-0.194,1.807-0.194,2.723c0,0.956,0.085,1.933,0.252,2.902
		c0.17,0.989,0.409,1.856,0.709,2.576l0.01,0.023l0.011,0.023c0.294,0.617,0.701,1.135,1.211,1.542
		c0.469,0.375,1.002,0.68,1.583,0.905c0.556,0.216,1.16,0.371,1.794,0.461c0.607,0.087,1.231,0.131,1.857,0.131
		c0.462,0,0.946-0.016,1.439-0.046l1.358-0.087l1.021-0.067l-0.09-1.019l-0.131-1.486l-0.086-0.978l-0.979,0.068l-0.973,0.066
		l-0.305,0.021c-0.4,0.027-0.823,0.041-1.255,0.041c-0.43,0-0.853-0.021-1.256-0.061c-0.369-0.037-0.71-0.104-1.012-0.199
		c-0.27-0.084-0.505-0.198-0.701-0.339c-0.144-0.104-0.245-0.227-0.317-0.388c-0.206-0.486-0.371-1.095-0.48-1.787
		c-0.115-0.727-0.174-1.502-0.174-2.304c0-0.721,0.052-1.44,0.153-2.14c0.102-0.692,0.245-1.321,0.43-1.87
		c0.077-0.208,0.2-0.394,0.364-0.537c0.209-0.183,0.45-0.331,0.718-0.441c0.29-0.119,0.615-0.204,0.966-0.25
		c0.392-0.052,0.804-0.079,1.223-0.079c0.427,0,0.873,0.014,1.327,0.042c0.461,0.029,0.921,0.064,1.378,0.107l1.001,0.093
		l0.088-1.001l0.131-1.486l0.087-0.99l-0.989-0.093C346.605,84.752,346.116,84.715,345.616,84.686z"/>
	<linearGradient id="SVGID_30_" gradientUnits="userSpaceOnUse" x1="355.9927" y1="23.3335" x2="355.9927" y2="100.8285">
		<stop  offset="0" style="stop-color:#EFEFEF"/>
		<stop  offset="0.2421" style="stop-color:#EFEFEF"/>
		<stop  offset="0.3632" style="stop-color:#DCDDDD"/>
		<stop  offset="0.5474" style="stop-color:#F7F8F8"/>
		<stop  offset="0.7842" style="stop-color:#F2F2F2"/>
		<stop  offset="1" style="stop-color:#F7F8F8"/>
	</linearGradient>
	<path fill="url(#SVGID_30_)" d="M354.13,91.417v-1.536c-0.011-0.672,0.119-1.158,0.384-1.459c0.247-0.279,0.549-0.404,0.978-0.404
		h4.656h1v-1v-1.486v-1h-1h-4.656c-1.462,0-2.659,0.484-3.559,1.44c-0.891,0.945-1.323,2.275-1.289,3.953v7.324
		c0.018,0.797,0.148,1.493,0.391,2.091c0.244,0.609,0.583,1.133,1.007,1.557c0.43,0.431,0.943,0.756,1.526,0.966
		c0.55,0.199,1.153,0.3,1.793,0.3h4.699h1v-1v-1.486v-1h-1h-4.699c-0.365,0-0.646-0.105-0.88-0.332
		c-0.223-0.215-0.341-0.604-0.351-1.156v-2.284h6.214h1v-1v-1.486v-1h-1H354.13z"/>
	<linearGradient id="SVGID_31_" gradientUnits="userSpaceOnUse" x1="370.6187" y1="23.3335" x2="370.6187" y2="100.8285">
		<stop  offset="0" style="stop-color:#EFEFEF"/>
		<stop  offset="0.2421" style="stop-color:#EFEFEF"/>
		<stop  offset="0.3632" style="stop-color:#DCDDDD"/>
		<stop  offset="0.5474" style="stop-color:#F7F8F8"/>
		<stop  offset="0.7842" style="stop-color:#F2F2F2"/>
		<stop  offset="1" style="stop-color:#F7F8F8"/>
	</linearGradient>
	<path fill="url(#SVGID_31_)" d="M373.275,94.986c0.069-0.031,0.138-0.063,0.205-0.095l0.038-0.018l0.035-0.021
		c0.414-0.245,0.787-0.559,1.106-0.935c0.295-0.347,0.55-0.726,0.759-1.126c0.212-0.403,0.373-0.834,0.479-1.279
		c0.105-0.437,0.159-0.883,0.159-1.325c0-0.481-0.057-0.969-0.168-1.451c-0.112-0.483-0.28-0.945-0.498-1.375
		c-0.226-0.441-0.503-0.839-0.824-1.188c-0.338-0.367-0.731-0.669-1.169-0.897c-0.6-0.299-1.248-0.504-1.943-0.614
		c-0.648-0.103-1.349-0.154-2.081-0.154c-0.348,0-0.718,0.007-1.11,0.023c-0.391,0.015-0.782,0.038-1.174,0.067l-1.047,0.063h-0.67
		h-1v1v15.412v1h1h1.486h1v-1v-5.381c0.13,0.006,0.264,0.013,0.399,0.019c0.334,0.015,0.663,0.023,0.983,0.023h0.4l3.758,6.001
		l0.539,0.861l0.853-0.553l1.246-0.809l0.827-0.537l-0.524-0.834L373.275,94.986z M369.374,87.995c0.515,0,0.998,0.033,1.438,0.099
		c0.356,0.053,0.675,0.139,0.947,0.255c0.069,0.055,0.142,0.131,0.216,0.226c0.122,0.155,0.231,0.326,0.325,0.508
		c0.087,0.17,0.155,0.354,0.201,0.543c0.047,0.192,0.07,0.382,0.07,0.562c0,0.371-0.072,0.714-0.221,1.047
		c-0.119,0.27-0.288,0.461-0.531,0.604c-0.258,0.143-0.606,0.247-1.014,0.296c-0.5,0.061-1.025,0.091-1.563,0.091
		c-0.282,0-0.573-0.003-0.87-0.011c-0.177-0.004-0.348-0.01-0.513-0.016v-4.155c0.182-0.011,0.357-0.02,0.529-0.027
		C368.722,88.002,369.051,87.995,369.374,87.995z"/>
</g>
</svg>
